<svg height="1080pt" preserveAspectRatio="xMidYMid meet" viewBox="0 0 1080 1080" width="1080pt" xmlns="http://www.w3.org/2000/svg"><g transform="matrix(.1 0 0 -.1 0 1080)"><path d="m5120 10784c-548-37-993-123-1463-284-646-221-1230-555-1776-1017-147-125-426-403-560-558-707-823-1153-1832-1275-2885-28-236-36-386-36-649 0-400 29-698 105-1076 183-909 589-1736 1208-2460 56-65 174-191 262-280 787-789 1805-1318 2895-1504 359-62 422-66 940-66 458 1 482 2 671 28 1221 166 2281 688 3134 1541 437 437 778 918 1046 1470 269 558 425 1101 506 1761 26 216 26 952 0 1165-112 911-379 1654-854 2379-221 336-415 574-707 866-1022 1021-2393 1584-3831 1573-121-1-240-3-265-4zm576-124c648-38 1224-173 1799-422 1157-500 2094-1392 2649-2523 276-561 443-1138 513-1775 14-131 18-245 18-550s-4-419-18-550c-152-1382-812-2618-1872-3503-1230-1029-2859-1437-4444-1116-740 149-1467 474-2076 929-397 295-796 692-1087 1081-545 730-897 1601-1007 2497-60 479-52 1023 20 1477 87 549 239 1024 484 1520 272 550 562 953 1004 1396 284 283 499 461 806 666 944 629 2082 938 3211 873z"/><path d="m6098 10389c-257-29-416-196-479-504-18-90-16-249 5-319 62-210 188-328 416-387 179-46 343-36 463 29 81 44 217 208 217 262 0 5-67 43-148 84l-149 74-21-43c-26-53-76-111-113-131-48-24-147-18-210 14-94 47-124 138-100 302 28 186 74 274 168 317 69 32 141 28 208-12 45-26 95-95 95-131 0-41 8-42 173-34 87 4 161 11 164 14 11 11-17 112-51 183-76 157-246 259-466 279-36 3-74 7-85 8-11 2-50-1-87-5z"/><path d="m3932 10225c-79-24-145-45-147-47-4-3 334-1129 341-1137 4-5 287 79 306 90 12 8-2 59-256 894-48 160-77 241-87 242-8 1-79-18-157-42z"/><path d="m7383 9575c-197-53-335-234-335-440-1-181 105-330 302-429 106-53 180-70 275-63 105 7 175 38 254 113 207 194 211 472 11 657-153 141-350 204-507 162zm272-274c72-41 88-138 40-238-32-64-85-128-126-149-103-53-233 43-215 159 15 98 99 217 171 242 44 16 85 12 130-14z"/><path d="m3109 9527c-87-36-208-104-281-159-134-99-188-183-188-293 0-47 16-115 26-115 3 0 67 30 144 67l140 66v49c0 43 4 52 41 87 22 22 60 47 85 57 39 15 48 15 70 3 40-21 49-46 28-77-9-14-88-96-174-182-94-93-164-171-175-195-51-108 0-251 109-307 60-31 130-34 205-8 150 50 269 165 315 303 6 17 9 16 41-12 20-17 41-31 47-31 10 0 177 99 241 143l28 19-40 28c-45 33-76 78-212 300-138 227-200 280-329 280-45 0-82-8-121-23zm206-487c36-71 34-134-5-189-61-84-138-105-184-50-31 37-32 54-5 99 19 31 157 190 165 190 2 0 15-22 29-50z"/><path d="m8354 8604c-181-140-333-259-338-264-13-13 193-273 207-262 170 133 339 263 365 281 71 50 149 48 192-6 26-33 26-92 1-124-10-13-109-94-220-179-110-85-200-159-201-163 0-12 191-257 200-257 4 0 92 65 195 145 103 81 201 153 216 160 85 45 191-22 175-109-8-42-42-73-264-246l-183-142 34-41c18-23 64-81 101-129 37-49 70-88 73-88 14 0 488 377 514 409 54 66 72 114 67 189-5 85-33 145-103 216-57 57-120 88-209 101-43 7-47 10-41 29 4 11 9 46 12 78 7 74-26 147-102 227-62 65-126 98-207 108l-51 6 24 20c13 11 34 28 47 38l23 18-93 120c-51 66-95 120-99 121-3 0-153-115-335-256z"/><path d="m5210 8819c-606-34-1200-233-1706-570-833-557-1369-1419-1505-2425-29-215-32-610-6-824 82-659 329-1251 736-1760 91-114 335-366 446-460 544-462 1196-738 1914-810 153-15 509-12 678 5 1168 123 2194 837 2713 1890 183 371 280 691 337 1111 24 182 24 657 0 833-79 562-256 1040-550 1481-281 422-653 778-1090 1043-577 351-1284 525-1967 486zm565-135c1391-150 2556-1189 2863-2554 63-279 87-527 79-825-9-347-54-621-154-930-242-753-761-1410-1440-1821-297-180-649-322-991-399-260-58-372-69-722-70-348 0-424 7-685 61-591 124-1127 402-1587 826-176 163-338 356-493 588-296 444-475 936-536 1480-17 148-17 563 0 705 50 419 159 785 341 1144 332 654 873 1182 1534 1496 559 266 1162 367 1791 299z"/><path d="m5260 6909c-421-44-812-279-1046-630-527-789-159-1860 741-2158 158-52 277-71 446-71 229 0 419 42 619 136 415 197 709 579 797 1039 24 127 24 399 0 518-111 550-508 979-1039 1122-97 27-311 56-388 54-25-1-83-6-130-10zm1264-1515c9-8 16-20 16-25 0-6-7-3-16 6-11 11-26 14-43 11-25-6-25-6-7 9 25 19 31 19 50-1zm-79-59c14-13 25-33 25-44 0-17-3-16-29 10-34 33-74 38-110 13-22-16-23-16-12 4 25 47 88 56 126 17zm109-51c9-3 16-13 16-21 0-13-3-13-15-3-8 7-24 10-35 7-20-5-26 3-13 16 8 9 27 9 47 1zm-30-108c42-17 66-51 66-91l-1-30-15 27c-30 57-127 77-178 37-36-28-35-1 2 33 44 41 72 46 126 24zm-357-11c2-5-13-10-32-10-35 0-42 5-28 19 10 10 56 3 60-9zm-26-85c16 0 49-40 49-60 0-18-2-17-25 5-29 30-79 33-115 8l-25-17 16 24c19 29 58 52 77 45 8-3 18-5 23-5zm193-56c9-8 16-22 16-30 0-10-5-9-20 6-23 23-42 25-73 9-22-12-22-12-3 10 22 25 58 27 80 5zm311-10c19-20 12-32-9-15-9 8-24 10-38 5-20-6-21-5-9 10 17 20 35 20 56 0zm-57-76c17-17 15-33-3-18-8 7-26 10-40 8-20-4-23-3-14 8 14 17 41 18 57 2zm-153-12c36-15 65-60 65-98-1-22-1-22-16 4-30 57-127 77-178 37-36-28-35-1 2 33 44 41 72 46 127 24zm-273-73c9-10 19-29 23-43l7-25-29 28c-31 28-70 35-104 17-23-13-25-3-2 22 21 24 84 24 105 1zm118-94c11-20 11-20-13-4-14 9-32 13-42 9-13-5-16-4-11 4 12 20 54 14 66-9zm-245-33c39-17 62-48 71-97l6-34-26 36c-41 59-114 75-173 39-36-22-41-16-17 19 16 22 66 50 92 51 7 0 28-6 47-14zm177-33c10-9 18-22 18-30 0-9-6-7-20 7-22 22-60 26-78 8-7-7-12-8-12-2 0 34 61 45 92 17zm161-44c9-12 17-30 17-40 0-16-3-15-25 6-29 29-79 33-114 9-22-16-23-16-12 4 29 54 97 65 134 21zm-168-104c14-13 25-33 25-44 0-17-3-16-29 10-33 32-65 37-99 13-31-22-28 0 4 25 35 28 69 26 99-4zm-323-12c9-10 19-29 23-43l7-25-29 28c-31 28-70 35-104 17-23-13-25-3-2 22 21 24 84 24 105 1zm-184-35c20-20 13-30-10-14-16 12-26 13-42 4-19-10-20-10-7 5 16 20 42 22 59 5zm339-30c11-13 24-34 28-48l8-25-26 27c-34 36-73 45-109 25-33-19-37-6-8 23 28 28 81 26 107-2zm-273-60c23-32 20-46-4-20-23 24-41 27-71 12-21-12-26-1-7 18 20 20 65 14 82-10zm94-54c12-8 22-22 22-31 0-15-2-14-18 0-21 19-45 21-72 7-15-8-18-7-14 4s37 33 54 35c3 1 16-6 28-15z"/><path d="m2706 5135c25-524 238-1076 581-1503 675-842 1770-1202 2821-926 222 58 489 169 676 281 48 30 70 36 125 39 36 2 77 6 91 9 58 14 134 59 189 113 57 56 58 58 65 128l7 70 75 75c435 427 738 1090 769 1684l5 100-19-122c-64-400-201-759-416-1088-180-276-379-483-687-713-327-244-706-403-1141-477-266-46-624-46-894 0-600 103-1180 422-1570 867-385 438-596 913-677 1528-2 19-2-10 0-65z"/><path d="m3611 5194c0-11 3-14 6-6 3 7 2 16-1 19-3 4-6-2-5-13z"/><path d="m3621 5134c0-11 3-14 6-6 3 7 2 16-1 19-3 4-6-2-5-13z"/><path d="m3636 5055c11-89 88-305 149-415 69-124 172-280 185-280 5 0-18 37-50 83-109 151-215 378-266 572-18 66-23 77-18 40z"/><path d="m7134 3497c-75-69-96-93-82-95 70-12 198 96 198 168 0 11-3 20-7 19-5 0-53-42-109-92z"/><path d="m1985 8663c-50-59-98-117-107-129-18-22-17-23 130-144 239-199 272-236 272-300 0-62-51-120-105-120-43 0-80 25-278 191-105 87-193 159-196 158-3 0-53-57-110-126-86-105-101-127-90-138 89-85 476-394 519-414 118-56 248-23 332 83 69 87 82 121 88 229l5 98 42-35c22-20 45-36 50-36 9 1 185 210 191 228 1 5-136 126-305 268-169 141-317 265-328 275-20 18-22 17-110-88z"/><path d="m1180 7515c-18-42-37-78-41-81-6-3-260 103-293 123-8 5-3-136 10-304l6-71 70-32c43-19 68-35 65-43-3-7-13-31-22-55-10-24-16-44-14-46 3-3 169-77 205-93 7-2 23 20 37 51l26 56 113-51c222-99 282-122 344-127 113-9 179 41 245 185 26 56 69 192 69 219 0 9-188 75-211 74-4 0-10-17-14-37-15-83-48-113-101-93-87 33-304 134-304 142 0 5 14 38 30 75 17 36 30 71 30 78 0 9-100 58-206 101-6 3-26-29-44-71z"/><path d="m9405 7012c-133-39-241-128-293-239-25-53-27-68-26-178 0-111 3-128 37-232 44-130 99-219 166-269 47-34 169-89 178-80 3 3-7 76-23 162l-28 156-38 24c-108 68-112 211-8 280 23 16 44 23 49 18 4-5 46-148 92-317l84-308 35 6c55 10 171 62 222 100 58 43 108 110 134 179 29 79 25 234-10 351-15 49-39 112-54 139-42 77-121 152-199 188-59 28-80 33-163 35-68 2-112-2-155-15zm305-321c76-40 105-145 60-218-18-30-96-80-107-70-5 5-83 286-83 299 0 16 96 8 130-11z"/><path d="m805 6516c-14-24-31-69-37-99-16-77 0-128 62-190 26-26 40-46 31-43-24 7-111 18-111 14 0-2-11-70-25-153-13-82-23-150-22-151 2-2 796-132 832-137 18-2 22 10 42 123 11 69 24 143 27 166l7 40-148 23c-267 41-357 68-416 126-22 22-27 37-27 74 1 25 7 57 15 71s14 30 15 36c0 10-199 144-213 144-4 0-18-20-32-44z"/><path d="m9585 5649c-162-27-282-115-320-235-13-41-16-77-13-137 5-89 19-125 75-194l34-43h-55-56l-1-37c0-21-4-91-7-156-4-64-7-117-7-118 0-4 1188-63 1190-59 2 3 7 78 11 167l7 160-44 6c-24 3-114 9-200 13l-157 6 38 51c51 66 75 153 68 244-14 174-135 293-334 328-87 16-153 17-229 4zm200-340c21-6 54-26 72-44 29-29 33-40 33-84 0-42-5-56-31-86-39-44-92-59-185-52-124 9-184 58-184 150 0 51 22 86 72 110 39 19 163 23 223 6z"/><path d="m1075 5348c-214-11-391-21-392-22-5-5 10-315 16-324 4-5 184 0 434 12l428 20-7 160c-3 89-8 164-11 169-5 8 18 9-468-15z"/><path d="m388 5313-38-4 6-92c2-51 7-125 10-164l6-73h61c34 0 85 3 114 6l52 7-5 91c-3 50-7 124-10 164l-6 72-76-2c-43-1-94-3-114-5z"/><path d="m8802 4423c-106-222-108-334-6-459 28-35 813-735 832-741 7-3 114 268 116 293 0 7-105 92-234 189l-235 177 70-7c200-17 520-34 526-27 5 4 35 77 67 162 41 105 56 156 47 158-6 2-216-4-466-12l-454-15-27 26c-34 33-52 83-43 126 4 17 24 65 46 105 26 50 35 74 26 77-6 2-50 14-97 25-47 12-92 23-101 26-11 3-29-23-67-103z"/><path d="m428 4344c-4-3 109-343 117-352 2-2 200 4 440 13 241 9 438 15 440 13s-660-495-698-519c-10-7 110-369 122-369 9 0 965 801 969 811s-116 360-127 371c-3 4-229 12-501 17-272 6-554 13-626 15-73 3-134 3-136 0z"/><path d="m2015 2585c-53-19-111-82-125-136-21-78 2-152 64-207 58-51 136-65 204-36 144 60 175 239 59 341-58 51-128 64-202 38z"/><path d="m8655 2585c-55-19-110-83-125-145-38-160 128-299 275-231 168 78 163 304-7 375-46 19-90 20-143 1z"/><path d="m6992 1887c-92-38-124-56-127-72-3-11-11-73-18-138l-14-118 22 5c12 3 46 16 76 30l55 24 70 152c83 183 78 170 67 169-4 0-63-23-131-52z"/><path d="m3590 1865c-153-43-271-144-352-300-74-145-101-241-102-365-2-239 97-391 329-504 279-136 485-117 658 63 37 38 67 73 67 79 0 8-245 212-255 212-2 0-26-23-52-51-78-84-152-106-244-74-162 57-190 188-90 425 63 152 142 220 253 220 123 0 218-85 218-197 0-29 1-53 3-53 1 0 67-11 147-25 201-34 190-36 190 28-1 141-56 274-152 363-66 60-221 142-323 169-89 24-229 28-295 10z"/><path d="m6162 1619c-235-30-321-128-294-336l8-63-47-6c-77-10-75-7-55-138l18-116 64 6c47 5 64 4 64-6 0-15 91-594 94-597 1-1 75 10 164 24 140 22 162 28 162 44 0 10-20 146-45 302-25 157-45 287-45 290s34 11 75 18c57 9 75 16 75 28 0 19-29 202-34 217-3 8-26 7-79-1l-76-12-6 38c-13 76 14 100 128 114l47 6v77c0 42 3 87 6 100 6 22 5 22-77 21-46-1-112-5-147-10z"/><path d="m7111 1570c-303-82-472-289-431-529 43-257 262-437 486-401 225 36 449 181 504 325 12 33 25 79 27 102l5 41-153-48-154-48-25-47c-62-115-209-129-285-26-13 19-24 35-22 36 1 1 136 58 301 125 164 68 300 129 303 136 8 21-77 173-129 230-73 80-156 117-267 121-62 2-106-2-160-17zm135-254c24-24 44-50 44-57 0-16-276-133-291-124-5 4-9 32-9 63 0 102 59 162 159 162 50 0 57-3 97-44z"/><path d="m4885 1230c-79-9-131-27-182-62-45-30-89-95-99-144l-6-30 153-27c147-27 154-27 166-10 45 64 96 82 189 68 57-8 84-34 84-80 0-31-4-35-37-45-21-6-103-20-183-31-299-41-361-66-405-162-47-99-28-214 46-284 69-65 197-96 341-81 66 6 177 48 199 74 18 22 26 17 33-24 3-20 10-43 14-50 8-12 176-31 278-32h42l-14 38c-18 49-17 98 2 352 14 176 15 225 5 275-22 106-73 168-173 209-79 33-340 60-453 46zm291-542c-15-114-76-168-190-168-87 0-129 50-101 117 15 36 47 50 175 79 133 30 124 33 116-28z"/></g></svg>